PathFileType	4	(X/Y/Z)	/Users/itak/Documents/Research/Walk-IL/dataset/trc/00333_00011.trc
DataRate	CameraRate	NumFrames	NumMarkers	Units	OrigDataRate	OrigDataStartFrame	OrigNumFrames
100.000000	100.000000	4	54	mm	100.000000	189	506
Frame#	Time	RPSI			LPSI			L3			STRN			T10			C7			CLAV			RBAK			LBAK			LSHO			LUPA			LAEL			LAOL			LWTS			LWPS			LFRA			LIFD			LHPS			LHTS			RSHO			RUPA			RAEL			RAOL			RWTS			RWPS			RFRA			RIFD			RHTS			RHPS			RBHD			LFHD			RFHD			LBHD			LHIP			RHIP			RASI			LASI			LKNE			LTHI			LANK			LTIP			LTOE			LMT5			LHEE			RKNE			RTHI			RANK			RTIP			RTOE			RMT1			RMT5			RHEE			LMT1			*53			
		X1	Y1	Z1	X2	Y2	Z2	X3	Y3	Z3	X4	Y4	Z4	X5	Y5	Z5	X6	Y6	Z6	X7	Y7	Z7	X8	Y8	Z8	X9	Y9	Z9	X10	Y10	Z10	X11	Y11	Z11	X12	Y12	Z12	X13	Y13	Z13	X14	Y14	Z14	X15	Y15	Z15	X16	Y16	Z16	X17	Y17	Z17	X18	Y18	Z18	X19	Y19	Z19	X20	Y20	Z20	X21	Y21	Z21	X22	Y22	Z22	X23	Y23	Z23	X24	Y24	Z24	X25	Y25	Z25	X26	Y26	Z26	X27	Y27	Z27	X28	Y28	Z28	X29	Y29	Z29	X30	Y30	Z30	X31	Y31	Z31	X32	Y32	Z32	X33	Y33	Z33	X34	Y34	Z34	X35	Y35	Z35	X36	Y36	Z36	X37	Y37	Z37	X38	Y38	Z38	X39	Y39	Z39	X40	Y40	Z40	X41	Y41	Z41	X42	Y42	Z42	X43	Y43	Z43	X44	Y44	Z44	X45	Y45	Z45	X46	Y46	Z46	X47	Y47	Z47	X48	Y48	Z48	X49	Y49	Z49	X50	Y50	Z50	X51	Y51	Z51	X52	Y52	Z52	X53	Y53	Z53	X54	Y54	Z54	

190	1.89	745.438720703125	951.321533203125	266.2127075195312	738.4867553710938	947.7761840820312	135.8756103515625	733.9969482421875	1013.971618652344	204.3111724853516	964.362548828125	1208.100219726562	184.1288452148438	726.6890869140625	1133.861450195312	196.2225799560547	754.5590209960938	1382.575805664062	172.5089111328125	914.0769653320312	1330.817993164062	177.1427154541016	716.5828857421875	1244.3125	246.5707702636719	745.488525390625	1341.2470703125	72.60693359375	829.6633911132812	1359.767456054688	15.06375026702881	817.8983154296875	1237.693237304688	-48.9895133972168	849.1116943359375	1035.683715820312	-60.46673202514648	787.876953125	1019.093505859375	-3.533796787261963	959.7869262695312	798.9448852539062	-16.38761329650879	921.2862548828125	786.0374145507812	-72.24452209472656	870.7340698242188	932.3389282226562	-67.61539459228516	973.344970703125	638.2913208007812	-13.23467063903809	922.44873046875	715.5311279296875	-66.76087188720703	976.3091430664062	721.7637329101562	-33.07988739013672	817.2345581054688	1377.7431640625	333.8584594726562	809.3381958007812	1317.148681640625	402.5954284667969	832.0180053710938	1053.240844726562	455.2798156738281	790.0547485351562	1037.229614257812	371.8316040039062	966.2909545898438	839.3294677734375	417.229736328125	932.2266235351562	820.4993286132812	484.0690307617188	863.592529296875	988.544677734375	467.9879760742188	1003.925170898438	669.9688110351562	434.9601440429688	1008.765014648438	743.3765869140625	436.718994140625	958.6577758789062	739.37158203125	483.550537109375	786.87841796875	1589.96533203125	247.9592437744141	953.1854858398438	1608.06494140625	123.5327453613281	946.1082153320312	1610.92431640625	224.4906616210938	769.5348510742188	1579.426391601562	104.2333145141602	828.0430297851562	894.7374267578125	29.78177452087402	833.9338989257812	905.524658203125	371.7811889648438	934.3765258789062	941.3736572265625	323.9007263183594	943.1134033203125	932.00537109375	83.50606536865234	1006.440307617188	466.8666687011719	33.2630500793457	971.6605834960938	594.8742065429688	24.21180534362793	674.1514282226562	182.5101318359375	56.76959228515625	840.4685668945312	313.6119384765625	32.22613525390625	829.5548706054688	52.04852676391602	109.428581237793	762.35791015625	96.21593475341797	38.87875747680664	653.9716796875	205.6954498291016	125.8019256591797	969.0223999023438	449.0292053222656	328.3200378417969	935.9732055664062	702.1552734375	377.4710388183594	931.1294555664062	44.83494186401367	286.2029418945312	988.032958984375	332.1280212402344	305.3038330078125	1122.296875	33.08454132080078	227.6300659179688	1064.9443359375	26.55767059326172	187.0402679443359	1032.74560546875	32.56035614013672	300.0013122558594	879.3240966796875	42.44590759277344	240.4881591796875	773.2708129882812	85.03440856933594	152.8572998046875	nan	nan	nan	
191	1.9	742.0289916992188	951.3920288085938	265.0390625	735.7802734375	948.2548217773438	134.6512298583984	730.9766845703125	1013.634826660156	203.0038604736328	960.1040649414062	1208.436401367188	184.2214202880859	722.451171875	1133.638305664062	194.6761016845703	749.9932861328125	1382.478149414062	170.9978790283203	909.6104125976562	1331.054809570312	176.8905181884766	711.9385986328125	1244.094848632812	244.7430572509766	741.8233032226562	1341.142822265625	71.01214599609375	826.4512329101562	1359.878295898438	14.13411426544189	815.3347778320312	1237.8193359375	-50.06890106201172	846.699462890625	1035.8740234375	-61.47882461547852	785.0618286132812	1019.228576660156	-5.004830360412598	956.8753662109375	798.9613037109375	-16.93186950683594	918.8101196289062	786.2138671875	-73.13486480712891	868.3253173828125	932.5340576171875	-68.61928558349609	970.1776123046875	638.1542358398438	-13.97998046875	919.8031616210938	715.6892700195312	-67.75368499755859	973.413818359375	721.7449340820312	-33.58274078369141	811.409912109375	1377.771118164062	332.7788391113281	802.8816528320312	1317.246948242188	401.4347839355469	824.90185546875	1053.4541015625	454.8785705566406	784.1683959960938	1037.300415039062	370.8005676269531	960.3558349609375	839.972412109375	419.2593688964844	924.948974609375	820.7844848632812	485.4098205566406	856.3049926757812	988.828369140625	468.1697082519531	998.0621337890625	670.85205078125	437.8099670410156	1002.894226074219	744.247802734375	439.5349731445312	951.7568359375	739.7807006835938	485.1746215820312	782.0394897460938	1590.081298828125	247.0300598144531	948.8005981445312	1608.034912109375	123.1790084838867	941.3870239257812	1610.88818359375	224.1301727294922	765.1771850585938	1579.58056640625	103.2809753417969	826.4000244140625	894.931640625	29.07326889038086	829.8055419921875	905.3303833007812	370.8619079589844	930.5106201171875	941.4468994140625	323.6584167480469	940.5055541992188	932.1013793945312	83.18185424804688	997.08056640625	464.6924743652344	33.64434051513672	964.5277709960938	593.3526611328125	24.40316581726074	658.5405883789062	188.3606872558594	57.00854873657227	827.826416015625	315.0788269042969	32.62654495239258	808.2850952148438	51.11737442016602	110.2986221313477	743.175537109375	98.23706817626953	39.50551986694336	639.0178833007812	212.2946166992188	125.9251403808594	966.1390380859375	449.0411376953125	328.7523803710938	934.2771606445312	702.6602783203125	375.2228393554688	931.0537109375	44.73058700561523	286.3023681640625	985.9667358398438	332.4460754394531	305.5801391601562	1122.274047851562	33.07590484619141	227.6809692382812	1064.914916992188	26.66236114501953	187.1546325683594	1032.750854492188	32.52910614013672	300.0360412597656	879.2595825195312	42.27081298828125	240.6022644042969	753.23388671875	86.90335083007812	153.5934906005859	nan	nan	nan	
192	1.91	738.5057983398438	951.4385986328125	263.8485107421875	732.9161987304688	948.6903076171875	133.4271240234375	727.8939208984375	1013.27490234375	201.6930847167969	955.7210083007812	1208.721801757812	184.2428588867188	718.08154296875	1133.391723632812	193.0708770751953	745.333251953125	1382.35498046875	169.4425659179688	905.0264892578125	1331.23974609375	176.5791168212891	707.1539306640625	1243.847900390625	242.8778839111328	738.051513671875	1341.024536132812	69.37844085693359	823.1323852539062	1359.97509765625	13.16522121429443	812.6883544921875	1237.9365234375	-51.18474197387695	844.216064453125	1036.0380859375	-62.48098373413086	782.2039184570312	1019.337768554688	-6.454999923706055	953.9459838867188	798.979736328125	-17.50706672668457	916.27490234375	786.3704223632812	-74.00982666015625	865.8568725585938	932.716552734375	-69.61184692382812	967.0025634765625	638.04736328125	-14.71824073791504	917.1138305664062	715.8324584960938	-68.72423553466797	970.4991455078125	721.7174072265625	-34.11238861083984	805.4705810546875	1377.750732421875	331.6242980957031	796.36474609375	1317.290771484375	400.21142578125	817.6798095703125	1053.6103515625	454.4146423339844	778.0780639648438	1037.328979492188	369.7888793945312	954.052734375	840.4436645507812	421.1364440917969	917.4197387695312	820.9612426757812	486.6170349121094	848.8695068359375	989.0436401367188	468.2564697265625	991.7078857421875	671.5387573242188	440.5022277832031	996.5884399414062	744.91943359375	442.1519165039062	944.53271484375	740.0702514648438	486.690185546875	777.045654296875	1590.106323242188	246.0585174560547	944.2794189453125	1607.999145507812	122.804801940918	936.5132446289062	1610.841552734375	223.7440185546875	760.7008056640625	1579.635131835938	102.287841796875	824.4884033203125	895.105712890625	28.31664276123047	825.6121826171875	905.162353515625	369.9234008789062	926.539794921875	941.5498657226562	323.3656921386719	937.7476806640625	932.1583251953125	82.81581878662109	987.150390625	462.5135498046875	33.86586761474609	957.0166625976562	591.742431640625	24.49927520751953	643.3419799804688	193.3551483154297	57.10979080200195	815.0911254882812	316.1155090332031	32.85441970825195	787.4584350585938	49.88151168823242	110.9911575317383	724.4119262695312	99.64662933349609	40.00967025756836	624.4735717773438	217.9839324951172	125.9163360595703	963.1358642578125	449.0636291503906	329.1217956542969	932.2623901367188	703.2479248046875	373.0614624023438	930.9833984375	44.61773300170898	286.4165954589844	983.7977294921875	332.7620849609375	305.8325805664062	1122.25634765625	33.07244110107422	227.7273712158203	1064.877685546875	26.7658748626709	187.2696990966797	1032.757080078125	32.50074768066406	300.0687255859375	879.1935424804688	42.08599090576172	240.7216796875	733.6741943359375	88.28285980224609	154.2004699707031	nan	nan	nan	
193	1.92	734.8334350585938	951.4439086914062	262.6375122070312	729.87109375	949.0511474609375	132.2021942138672	724.7252807617188	1012.891174316406	200.3708648681641	951.2045288085938	1208.944580078125	184.1943511962891	713.5894165039062	1133.116088867188	191.3995513916016	740.5776977539062	1382.196166992188	167.8447265625	900.3200073242188	1331.36279296875	176.2064971923828	702.2213134765625	1243.5625	240.9752349853516	734.1641235351562	1340.883544921875	67.70698547363281	819.693359375	1360.046264648438	12.15936851501465	809.9439697265625	1238.03515625	-52.33411026000977	841.6610717773438	1036.17333984375	-63.47949981689453	779.2965087890625	1019.410278320312	-7.892802238464355	950.9989013671875	798.9962768554688	-18.09912872314453	913.6942749023438	786.5047607421875	-74.86571502685547	863.3328857421875	932.8812866210938	-70.59420013427734	963.826416015625	637.9791259765625	-15.42427730560303	914.4006958007812	715.9580688476562	-69.67276763916016	967.574462890625	721.6836547851562	-34.65589904785156	799.4171142578125	1377.673828125	330.39892578125	789.78759765625	1317.27294921875	398.9255065917969	810.3616333007812	1053.703979492188	453.8793334960938	771.7940063476562	1037.299560546875	368.7700500488281	947.3893432617188	840.7247924804688	422.8390808105469	909.6524658203125	821.0274658203125	487.6832885742188	841.3009643554688	989.1846313476562	468.2343444824219	984.8873901367188	672.0031127929688	443.0134887695312	989.8527221679688	745.3668212890625	444.5586853027344	936.9945068359375	740.2379760742188	488.0987854003906	771.9088745117188	1590.033569335938	245.0482482910156	939.6323852539062	1607.94140625	122.413948059082	931.4987182617188	1610.765747070312	223.3345031738281	756.1143798828125	1579.5888671875	101.25634765625	822.2583618164062	895.25048828125	27.5068531036377	821.35107421875	905.0128784179688	368.968994140625	922.4544067382812	941.6790771484375	323.0320434570312	934.8121337890625	932.1603393554688	82.41160583496094	976.6787719726562	460.3648681640625	33.92135620117188	949.2601928710938	590.0517578125	24.52814292907715	628.5476684570312	197.4304046630859	57.0959587097168	802.2783813476562	316.7095642089844	32.91288375854492	767.1798095703125	48.29476547241211	111.536247253418	706.1197509765625	100.4063339233398	40.40276718139648	610.3336181640625	222.7018737792969	125.8028793334961	960.0195922851562	449.0952758789062	329.4264831542969	929.9132690429688	703.9013671875	371.0233459472656	930.9212036132812	44.49655151367188	286.5489501953125	981.5249633789062	333.0715942382812	306.0618591308594	1122.24462890625	33.07503509521484	227.7693176269531	1064.83251953125	26.86752891540527	187.3836059570312	1032.762451171875	32.47195434570312	300.1023864746094	879.12841796875	41.89155960083008	240.8476715087891	714.6879272460938	89.13764190673828	154.6811065673828	nan	nan	nan	
